# xmcd
#
# Track frame offsets:
#	182
#	25115
#	52065
#	76207
#	104015
#	133007
#	157910
#	184450
#	211102
#	235187
#	263402
#	287417
#
# Disc length: 4129 seconds
#
# Revision: 0
# Processed by: cddbd v1.5.1PL2 Copyright (c) Steve Scherf et al.
# Submitted via: EasyCDDAExtractor 8.2.3.1
#
DISCID=9d101f0c
DTITLE=Various Artist - Happy Anthems 4
DYEAR=1996
DGENRE=Happy Hardcore
TTITLE0=Billy 'Daniel' Bunter - Ride Like The Wind
TTITLE1=Brisk - Airhead (Slipmatt Remix)
TTITLE2=Seduction - Imagination
TTITLE3=Vibes and Wiskdokta - Motorway Madness
TTITLE4=Druid and Heatwave - Music For The 90's
TTITLE5=Force and Styles - Harmony
TTITLE6=Dougal and Eruption - Party Time
TTITLE7=Brisk vs Rebel Alliance - Adrenaline Flowing
TTITLE8=Hixxy and Sharkey - Toytown
TTITLE9=Brisk vs Rebel Alliance - Floor Friction (Brisk Remix)
TTITLE10=Billy 'Daniel' Bunter and JDS - Come Alive (Remix)
TTITLE11=Sandman - Can CAn Party (Chaos Mix)
EXTD=
EXTT0=
EXTT1=
EXTT2=
EXTT3=
EXTT4=
EXTT5=
EXTT6=
EXTT7=
EXTT8=
EXTT9=
EXTT10=
EXTT11=
PLAYORDER=
